<?xml version="1.0" encoding="utf-8"?>
<!-- Generator: Adobe Illustrator 19.2.1, SVG Export Plug-In . SVG Version: 6.00 Build 0)  -->
<svg version="1.1" id="layer" xmlns="http://www.w3.org/2000/svg" xmlns:xlink="http://www.w3.org/1999/xlink" x="0px" y="0px"
	 viewBox="0 0 652 652" style="enable-background:new 0 0 652 652;" xml:space="preserve">
<style type="text/css">
	.st0{fill:#608FC9;}
</style>
<polygon class="st0" points="21.3,249.4 78.5,249.4 78.5,266.8 62.1,266.8 62.1,308.8 38.2,308.8 38.2,266.8 21.3,266.8 "/>
<polygon class="st0" points="107.5,273.6 95.4,308.8 72.5,308.8 95.1,249.4 120,249.4 142.9,308.8 119.8,308.8 "/>
<polygon class="st0" points="137.6,249.4 194.8,249.4 194.8,266.8 178.4,266.8 178.4,308.8 154.5,308.8 154.5,266.8 137.6,266.8 "/>
<polygon class="st0" points="223.8,273.6 211.7,308.8 188.8,308.8 211.2,249.4 236.3,249.4 259.2,308.8 236.1,308.8 "/>
<path class="st0" d="M551.9,284.8c3.7,1.1,5.5,3.7,6.8,9.8c1.6,7.4,3.2,12.5,3.9,14.1h11c-1.1-2.4-2.6-9-4.5-16.5
	c-1.6-5.8-3.9-10.1-8.4-11.7v-0.3c5.8-1.9,10.8-7.2,10.8-14.9c0-5-1.9-9.3-5-12c-3.4-2.9-8.1-4.5-14.6-4.8v8.2
	c5.5,0.8,8.9,3.7,8.9,9.6c0,5.1-3.4,8.8-8.9,9.6V284.8z M532,308.7h10.7v-24.5h5.5c1.3,0,2.6,0,3.7,0.5V276c-1.1,0-1.8,0.3-2.9,0.3
	h-6.3v-18.9c1-0.3,3.4-0.5,6.8-0.5h2.4v-8.2h-3.4c-6.3,0-12.3,0.5-16.5,1.1V308.7z"/>
<path class="st0" d="M582.9,305.9c3.1,2.1,9.7,4,16,4c15.2,0,22.2-8.4,22.2-17.9c0-8.5-5-13.7-15.2-17.7c-7.8-2.9-11.3-5-11.3-9.5
	c0-3.7,2.9-7.4,9.7-7.4c5.5,0,9.7,1.8,11.8,2.9l2.6-8.7c-3.1-1.6-7.9-2.9-14.1-2.9c-12.8,0-21,7.4-21,16.9c0,8.7,6.3,14,16,17.4
	c7.6,2.6,10.5,5.3,10.5,9.8c0,4.7-3.9,8.2-10.7,8.2c-5.5,0-10.7-1.8-14.1-3.9L582.9,305.9z"/>
<path class="st0" d="M340.2,284.5c-0.3-7.7-0.9-16.9-0.9-24.9c-2.1,7.4-4.6,15.4-7.1,22.8l-8.9,25.8h-8.3l-7.7-25.5
	c-2.5-7.4-4.6-15.7-6.2-23.1h-0.3c-0.3,7.7-0.6,17.2-0.9,25.5l-1.2,23.7h-10.2l3.7-59.4h14.4l7.7,24c2.1,6.8,4,13.8,5.5,20.6h0.3
	c1.5-6.5,3.7-13.8,5.8-20.9l8.3-23.7h14.2l3.4,59.4h-10.8L340.2,284.5z"/>
<path class="st0" d="M389.1,309.7c16.1-0.2,27.9-11.5,27.9-31c0-17.1-10.1-30-27.4-30h-0.5v8.6c10.8,0,16.3,10.6,16.3,21.6
	c0,12.5-5.8,22.1-16.3,22.1V309.7z M388.9,309.7h0.2v-8.6c-10.3,0-16.3-9.9-16.3-21.6c0-11.8,5.5-22.1,16.3-22.1v-8.6
	c-16.3,0.2-27.6,13-27.6,31c0,17.3,10.6,30,27.1,30H388.9z"/>
<path class="st0" d="M494.6,309.7c16.1-0.2,27.8-11.5,27.8-31c0-17.1-10.1-30-27.4-30h-0.5v8.6c10.8,0,16.3,10.6,16.3,21.6
	c0,12.5-5.8,22.1-16.3,22.1V309.7z M494.4,309.7h0.2v-8.6c-10.3,0-16.3-9.9-16.3-21.6c0-11.8,5.5-22.1,16.3-22.1v-8.6
	c-16.3,0.2-27.6,13-27.6,31c0,17.3,10.6,30,27.2,30H494.4z"/>
<polygon class="st0" points="437,308.7 447.8,308.7 447.8,258.8 464.6,258.8 464.6,249.7 419.9,249.7 419.9,258.8 437,258.8 "/>
<path class="st0" d="M36.9,384.2c-9.5,0-15.6-5.7-15.6-15.1v-15.8c0-9.3,6.2-15.1,15.4-15.1c4.7,0,9.4,1.6,13.2,4.5
	c0.3,0.2,0.3,0.4,0.1,0.7l-1.2,1.8c-0.2,0.3-0.4,0.3-0.7,0.1c-3.3-2.5-7.4-3.9-11.4-3.9c-7.8,0-12,4.9-12,11.8v15.8
	c0,7,4.2,11.8,12.1,11.8c4.4,0,8.8-1.5,12.3-4.4c0.3-0.2,0.6-0.2,0.7,0.1l1.2,1.8c0.2,0.2,0.2,0.5-0.1,0.7
	C46.9,382.7,41.8,384.2,36.9,384.2"/>
<path class="st0" d="M69.6,384.2c-8.4,0-13.3-5-13.3-12v-9.5c0-6.9,4.9-12,13.3-12c8.5,0,13.3,5.2,13.3,12v9.5
	C82.9,379.2,78.1,384.2,69.6,384.2 M69.6,381.2c6.7,0,10-3.8,10-9v-9.5c0-5.2-3.3-9-10-9c-6.5,0-9.9,3.8-9.9,9v9.5
	C59.7,377.4,63.1,381.2,69.6,381.2z"/>
<path class="st0" d="M91.4,383.6c-0.3,0-0.6-0.2-0.6-0.5v-29.2c0-0.2,0.1-0.5,0.4-0.6c3.4-1.5,7.4-2.4,11.6-2.4
	c8.3,0,13.5,4.1,13.5,13v19.3c0,0.3-0.2,0.5-0.5,0.5h-2.2c-0.3,0-0.6-0.2-0.6-0.5v-19.2c0-7-3.7-10-10.2-10c-3.1,0-6.3,0.6-8.7,1.5
	v27.7c0,0.3-0.2,0.5-0.5,0.5H91.4z"/>
<path class="st0" d="M125.7,383.6c-0.3,0-0.6-0.2-0.6-0.5v-29.2c0-0.2,0.1-0.5,0.4-0.6c3.4-1.5,7.4-2.4,11.6-2.4
	c8.3,0,13.5,4.1,13.5,13v19.3c0,0.3-0.2,0.5-0.5,0.5h-2.2c-0.3,0-0.6-0.2-0.6-0.5v-19.2c0-7-3.7-10-10.2-10c-3.1,0-6.3,0.6-8.7,1.5
	v27.7c0,0.3-0.2,0.5-0.5,0.5H125.7z"/>
<path class="st0" d="M183.8,368.7c0,0.3-0.2,0.5-0.6,0.5h-21.5v3.5c0,5.4,4.2,8.5,9.4,8.5c4.7,0,7.8-2,10.2-4
	c0.3-0.2,0.6-0.2,0.7,0.1l1.1,1.4c0.3,0.3,0.3,0.5-0.1,0.7c-2.9,2.5-6.7,4.7-12,4.7c-6.6,0-12.7-4.1-12.7-11.5v-9.8
	c0-8,5.7-12.1,12.8-12.1c7,0,12.6,4.1,12.6,12.1V368.7z M171.2,353.8c-5.7,0-9.4,3.1-9.4,9v3.6h18.8v-3.6
	C180.6,357,176.7,353.8,171.2,353.8z"/>
<path class="st0" d="M203.1,384.2c-8,0-12.8-5.1-12.8-11.8v-9.9c0-6.7,4.8-11.8,12.8-11.8c3.7,0,7,1.1,10,3.2
	c0.3,0.2,0.4,0.5,0.2,0.7l-1.1,1.6c-0.2,0.2-0.4,0.3-0.7,0.1c-2.6-1.8-5.3-2.7-8.4-2.7c-6.1,0-9.5,3.8-9.5,8.7v9.9
	c0,5,3.4,8.8,9.5,8.8c3.3,0,6.3-1.1,9.2-3.2c0.3-0.2,0.6-0.2,0.7,0.1l1.1,1.6c0.2,0.3,0.2,0.6-0.1,0.7
	C210.8,382.9,207.4,384.2,203.1,384.2"/>
<path class="st0" d="M230.5,381.1c0.8,0,2.2-0.1,3.4-0.1c0.3-0.1,0.5,0.1,0.5,0.5v2c0,0.3-0.1,0.5-0.5,0.6c-1.1,0.1-2.7,0.2-3.6,0.2
	c-6.1,0-10.1-3.7-10.1-10.6V344c0-0.3,0.2-0.5,0.5-0.5h2c0.3,0,0.5,0.2,0.6,0.5l0.2,7.6h9.5c0.3,0,0.5,0.2,0.5,0.6v1.9
	c0,0.3-0.2,0.5-0.5,0.5h-9.5v18.9C223.6,378.3,225.9,381.1,230.5,381.1"/>
<path class="st0" d="M241.5,344.9c-1.3,0-2.2-0.9-2.2-2.2c0-1.3,0.9-2.2,2.2-2.2c1.2,0,2.2,0.9,2.2,2.2
	C243.7,343.9,242.7,344.9,241.5,344.9 M240.3,383.6c-0.3,0-0.5-0.2-0.5-0.5v-31c0-0.4,0.2-0.6,0.5-0.6h2.3c0.3,0,0.5,0.2,0.5,0.6v31
	c0,0.3-0.2,0.5-0.5,0.5H240.3z"/>
<path class="st0" d="M252.8,383.6c-0.3,0-0.6-0.2-0.6-0.5v-29.2c0-0.2,0.1-0.5,0.4-0.6c3.4-1.5,7.4-2.4,11.6-2.4
	c8.3,0,13.5,4.1,13.5,13v19.3c0,0.3-0.2,0.5-0.5,0.5H275c-0.3,0-0.6-0.2-0.6-0.5v-19.2c0-7-3.7-10-10.2-10c-3.1,0-6.3,0.6-8.7,1.5
	v27.7c0,0.3-0.2,0.5-0.5,0.5H252.8z"/>
<path class="st0" d="M298.3,396c-4.9,0-8.6-1.7-11.8-4.7c-0.2-0.2-0.2-0.4-0.1-0.7l1.1-1.6c0.2-0.2,0.4-0.3,0.7-0.1
	c2.7,2.4,5.9,4.1,10.1,4.1c6.5,0,9.3-3.4,9.3-9.5v-3.1c-2.6,1.2-5.9,2.1-8.9,2.1c-7.8,0-13.3-4.1-13.3-12.5v-6.5
	c0-8.9,5.7-12.6,13.5-12.6c4,0,8.3,0.9,11.5,2.3c0.3,0.1,0.4,0.4,0.4,0.6v30C310.9,391,307.1,396,298.3,396 M298.8,379.4
	c3.2,0,6.4-0.9,8.7-2.2v-22.1c-2.3-0.8-6-1.4-8.7-1.4c-6.3,0-10.1,2.8-10.1,9.5v6.5C288.8,376.7,292.8,379.4,298.8,379.4z"/>
<path class="st0" d="M329.4,383.6c-0.3,0-0.5-0.3-0.4-0.6l15.9-43.5c0.1-0.2,0.3-0.4,0.6-0.4h3.1c0.2,0,0.4,0.2,0.6,0.4l16,43.5
	c0.1,0.4-0.1,0.6-0.4,0.6h-2.6c-0.3,0-0.5-0.2-0.6-0.4l-4.5-12.6h-19.9l-4.5,12.6c-0.1,0.3-0.3,0.4-0.6,0.4H329.4z M338.2,367.4H356
	l-8.8-24.4H347L338.2,367.4z"/>
<path class="st0" d="M380.5,384.2c-4.5,0-8.5-1.4-12-4c-0.3-0.2-0.3-0.4-0.2-0.7l1.1-1.7c0.2-0.3,0.4-0.4,0.8-0.1
	c3.1,2.3,6.6,3.6,10.5,3.6c5.1,0,8.7-2.2,8.7-6.2c0-4.4-4.6-5.4-8.7-6.2c-4.9-0.9-11.8-2.8-11.8-9.5c0-5.6,5.3-8.5,11.5-8.5
	c4.3,0,7.7,1.2,10.9,3c0.3,0.2,0.4,0.4,0.2,0.7l-1,1.7c-0.1,0.3-0.4,0.4-0.7,0.2c-2.7-1.6-6-2.6-9.5-2.6c-4.9,0-8.2,2.1-8.2,5.5
	c0,4.3,4.5,5.5,9.2,6.5c5.4,1.1,11.5,2.5,11.5,9.1C392.6,380.6,388,384.2,380.5,384.2"/>
<path class="st0" d="M411.5,350.8c8.1,0,13.5,4.1,13.5,13.4v6.7c0,8.8-5.2,13.3-13.3,13.3c-3.3,0-6.5-1-8.9-2.5v13.1
	c0,0.3-0.2,0.5-0.5,0.5H400c-0.3,0-0.6-0.2-0.6-0.5v-41.2c0-0.3,0.1-0.5,0.4-0.6C403.3,351.7,407.4,350.8,411.5,350.8 M421.6,370.9
	v-6.7c0-7.4-3.7-10.4-10.1-10.4c-3.2,0-6.2,0.6-8.7,1.5v23.2c2.4,1.7,5.5,2.7,8.7,2.7C418,381.2,421.6,378.1,421.6,370.9z"/>
<path class="st0" d="M434.6,344.9c-1.3,0-2.2-0.9-2.2-2.2c0-1.3,0.9-2.2,2.2-2.2c1.2,0,2.2,0.9,2.2,2.2
	C436.8,343.9,435.8,344.9,434.6,344.9 M433.4,383.6c-0.3,0-0.5-0.2-0.5-0.5v-31c0-0.4,0.2-0.6,0.5-0.6h2.3c0.3,0,0.5,0.2,0.5,0.6v31
	c0,0.3-0.2,0.5-0.5,0.5H433.4z"/>
<path class="st0" d="M445.9,383.6c-0.3,0-0.6-0.2-0.6-0.5v-29.4c0-0.3,0.1-0.5,0.4-0.6c3.1-1.4,6.9-2.2,10.5-2.2
	c2.1,0,4.2,0.3,6.4,0.6c0.4,0.1,0.5,0.3,0.5,0.6v1.9c0,0.3-0.3,0.5-0.6,0.4c-1.9-0.3-4-0.5-5.9-0.5c-2.9,0-5.8,0.6-8,1.5v27.8
	c0,0.3-0.2,0.5-0.5,0.5H445.9z"/>
<path class="st0" d="M478.9,350.8c7.7,0,11.9,4.3,11.9,11.8v18.9c0,0.3-0.1,0.5-0.4,0.6c-2.7,1.1-7,2.1-11.6,2.1
	c-7.2,0-13.1-3.4-13.1-10.1c0-6.4,5-9.8,13.1-9.8c3.2,0,6.4,0.6,8.7,1v-2.7c0-5.5-2.4-8.8-8.7-8.8c-3.7,0-7.2,1.1-9.5,2.6
	c-0.2,0.2-0.5,0.1-0.7-0.1l-1.1-1.6c-0.2-0.2-0.2-0.5,0-0.6C470.2,352.1,474.2,350.8,478.9,350.8 M478.8,381.2
	c3.5,0,6.5-0.7,8.7-1.5v-11.6c-2.3-0.5-5.6-0.9-8.7-0.9c-6.5,0-9.7,2.5-9.7,6.9C469,378.6,473.1,381.2,478.8,381.2z"/>
<path class="st0" d="M509.5,381.1c0.8,0,2.2-0.1,3.4-0.1c0.3-0.1,0.5,0.1,0.5,0.5v2c0,0.3-0.1,0.5-0.5,0.6c-1.1,0.1-2.7,0.2-3.6,0.2
	c-6.1,0-10.1-3.7-10.1-10.6V344c0-0.3,0.2-0.5,0.5-0.5h2c0.3,0,0.5,0.2,0.6,0.5l0.2,7.6h9.5c0.3,0,0.5,0.2,0.5,0.6v1.9
	c0,0.3-0.2,0.5-0.5,0.5h-9.5v18.9C502.6,378.3,505,381.1,509.5,381.1"/>
<path class="st0" d="M520.5,344.9c-1.3,0-2.2-0.9-2.2-2.2c0-1.3,0.9-2.2,2.2-2.2c1.2,0,2.2,0.9,2.2,2.2
	C522.7,343.9,521.8,344.9,520.5,344.9 M519.4,383.6c-0.3,0-0.5-0.2-0.5-0.5v-31c0-0.4,0.2-0.6,0.5-0.6h2.3c0.3,0,0.5,0.2,0.5,0.6v31
	c0,0.3-0.2,0.5-0.5,0.5H519.4z"/>
<path class="st0" d="M543.5,384.2c-8.4,0-13.3-5-13.3-12v-9.5c0-6.9,4.9-12,13.3-12c8.5,0,13.3,5.2,13.3,12v9.5
	C556.7,379.2,551.9,384.2,543.5,384.2 M543.5,381.2c6.7,0,10-3.8,10-9v-9.5c0-5.2-3.3-9-10-9c-6.5,0-9.9,3.8-9.9,9v9.5
	C533.5,377.4,536.9,381.2,543.5,381.2z"/>
<path class="st0" d="M565.2,383.6c-0.3,0-0.6-0.2-0.6-0.5v-29.2c0-0.2,0.1-0.5,0.4-0.6c3.4-1.5,7.4-2.4,11.6-2.4
	c8.3,0,13.5,4.1,13.5,13v19.3c0,0.3-0.2,0.5-0.5,0.5h-2.2c-0.3,0-0.6-0.2-0.6-0.5v-19.2c0-7-3.7-10-10.2-10c-3.1,0-6.3,0.6-8.7,1.5
	v27.7c0,0.3-0.2,0.5-0.5,0.5H565.2z"/>
<path class="st0" d="M609.1,384.2c-4.5,0-8.5-1.4-12-4c-0.3-0.2-0.3-0.4-0.2-0.7l1.1-1.7c0.2-0.3,0.4-0.4,0.8-0.1
	c3.1,2.3,6.6,3.6,10.5,3.6c5.1,0,8.7-2.2,8.7-6.2c0-4.4-4.6-5.4-8.7-6.2c-4.9-0.9-11.8-2.8-11.8-9.5c0-5.6,5.3-8.5,11.5-8.5
	c4.3,0,7.7,1.2,10.9,3c0.3,0.2,0.4,0.4,0.2,0.7l-1,1.7c-0.1,0.3-0.4,0.4-0.7,0.2c-2.7-1.6-6-2.6-9.5-2.6c-4.9,0-8.2,2.1-8.2,5.5
	c0,4.3,4.5,5.5,9.2,6.5c5.4,1.1,11.5,2.5,11.5,9.1C621.2,380.6,616.6,384.2,609.1,384.2"/>
</svg>
